<svg version="1.2" baseProfile="tiny-ps" xmlns="http://www.w3.org/2000/svg" viewBox="0 0 180 66" width="180" height="66">
	<title>Logo horizontal RGB-svg</title>
	<defs>
		<clipPath clipPathUnits="userSpaceOnUse" id="cp1">
			<path d="M0 0L180 0L180 66L0 66Z" />
		</clipPath>
	</defs>
	<style>
		tspan { white-space:pre }
		.shp0 { fill: #141414 } 
		.shp1 { fill: #27a1d6 } 
		.shp2 { fill: #1b3180 } 
	</style>
	<g id="Artboard 2" clip-path="url(#cp1)">
		<g id="Слой_x0020_1">
			<g id="_642121024">
				<g id="Layer">
					<g id="Layer">
						<path id="Layer" fill-rule="evenodd" class="shp0" d="M132.62 61.5C131.7 61.5 130.91 61.33 130.22 60.99C129.56 60.66 129.06 60.16 128.71 59.52C128.35 58.88 128.18 58.08 128.18 57.18L128.18 51.58C128.18 50.61 128.35 49.79 128.68 49.11C129.01 48.42 129.52 47.9 130.16 47.54C130.8 47.19 131.59 47.01 132.49 47.01C133.42 47.01 134.21 47.19 134.87 47.54C135.53 47.9 136.01 48.4 136.36 49.06C136.72 49.73 136.89 50.54 136.89 51.49L136.89 55.46L131.44 55.46L131.44 57.31C131.44 57.71 131.55 58 131.74 58.19C131.94 58.39 132.23 58.5 132.62 58.5C132.98 58.5 133.24 58.41 133.44 58.24C133.64 58.06 133.72 57.82 133.72 57.51L133.72 57.03L136.96 57.05L136.96 57.44C136.96 58.72 136.58 59.74 135.81 60.44C135.07 61.15 133.99 61.5 132.62 61.5ZM132.29 52.99L133.64 52.99L133.64 51.31C133.64 50.89 133.53 50.56 133.33 50.34C133.13 50.1 132.84 49.99 132.49 49.99C132.14 49.99 131.88 50.12 131.7 50.37C131.52 50.61 131.41 50.96 131.41 51.42L131.41 53.01L132.27 53.01L132.29 52.99Z" />
						<path id="Layer" fill-rule="evenodd" class="shp0" d="M100.54 61.5C99.62 61.5 98.82 61.33 98.14 60.99C97.48 60.66 96.98 60.16 96.62 59.52C96.27 58.88 96.1 58.08 96.1 57.18L96.1 51.58C96.1 50.61 96.27 49.79 96.6 49.11C96.93 48.42 97.44 47.9 98.08 47.54C98.71 47.19 99.51 47.01 100.41 47.01C101.33 47.01 102.12 47.19 102.78 47.54C103.44 47.9 103.93 48.4 104.28 49.06C104.63 49.73 104.81 50.54 104.81 51.49L104.81 55.46L99.35 55.46L99.35 57.31C99.35 57.71 99.46 58 99.66 58.19C99.86 58.39 100.14 58.5 100.54 58.5C100.89 58.5 101.16 58.41 101.35 58.24C101.55 58.06 101.64 57.82 101.64 57.51L101.64 57.03L104.88 57.05L104.88 57.44C104.88 58.72 104.5 59.74 103.73 60.44C102.98 61.15 101.9 61.5 100.54 61.5ZM100.21 52.99L101.55 52.99L101.55 51.31C101.55 50.89 101.44 50.56 101.24 50.34C101.05 50.1 100.76 49.99 100.41 49.99C100.06 49.99 99.79 50.12 99.62 50.37C99.44 50.61 99.33 50.96 99.33 51.42L99.33 53.01L100.19 53.01L100.21 52.99Z" />
						<path id="Layer" fill-rule="evenodd" class="shp0" d="M154.32 51.23C154.32 50.85 154.21 50.56 154.01 50.37C153.81 50.17 153.53 50.06 153.15 50.06C152.85 50.06 152.58 50.17 152.41 50.37C152.23 50.56 152.14 50.85 152.14 51.23L148.95 51.23C148.95 49.88 149.33 48.84 150.05 48.12C150.8 47.37 151.83 47.01 153.18 47.01C154.08 47.01 154.85 47.19 155.49 47.5C156.12 47.83 156.61 48.31 156.94 48.93C157.27 49.57 157.44 50.32 157.44 51.2L157.44 61.28L154.28 61.28L154.28 59.85C154.23 59.94 154.21 60 154.17 60.07C153.95 60.53 153.66 60.88 153.26 61.13C152.87 61.37 152.41 61.48 151.83 61.48C150.8 61.48 149.99 61.13 149.44 60.44C148.89 59.76 148.6 58.77 148.6 57.44C148.6 55.94 149 54.8 149.79 54C150.58 53.21 151.72 52.81 153.24 52.81L154.23 52.81L154.23 51.18L154.32 51.23ZM154.32 57.25L154.32 55.53L153.48 55.53C152.93 55.53 152.54 55.68 152.25 56.03C151.97 56.36 151.83 56.85 151.83 57.49C151.83 57.89 151.92 58.19 152.1 58.41C152.27 58.61 152.52 58.72 152.85 58.72C153.31 58.72 153.66 58.59 153.92 58.35C154.19 58.08 154.3 57.73 154.32 57.25Z" />
						<path id="Layer" class="shp0" d="M138.98 47.26L146.88 47.26L146.88 50.45L144.62 50.45L144.62 61.3L141.25 61.3L141.25 50.45L138.98 50.45L138.98 47.26Z" />
						<path id="Layer" class="shp0" d="M122.9 47.26L126.11 47.26L126.11 61.3L122.9 61.3L122.9 56.01L120.96 56.01L120.96 61.3L117.75 61.3L117.75 47.26L120.96 47.26L120.96 52.79L122.9 52.79L122.9 47.26Z" />
						<path id="Layer" fill-rule="evenodd" class="shp0" d="M112.8 61.5C112.16 61.5 111.61 61.3 111.12 60.88C110.77 60.58 110.46 60.13 110.24 59.63L110.24 67.01L106.9 67.01L106.9 47.26L110.24 47.26L110.24 48.95C110.51 48.45 110.82 48.03 111.19 47.7C111.7 47.23 112.25 47.01 112.84 47.01C113.44 47.01 113.94 47.17 114.36 47.48C114.78 47.79 115.11 48.23 115.33 48.8C115.55 49.37 115.66 50.08 115.66 50.89L115.66 57.58C115.66 58.41 115.55 59.14 115.31 59.72C115.09 60.31 114.76 60.75 114.34 61.06C113.9 61.37 113.39 61.52 112.8 61.52L112.8 61.5ZM110.4 57.86C110.49 58.06 110.62 58.22 110.77 58.33C110.93 58.44 111.12 58.48 111.37 58.48C111.7 58.48 111.96 58.35 112.14 58.11C112.31 57.86 112.4 57.51 112.4 57.07L112.4 51.38C112.4 50.96 112.31 50.63 112.14 50.39C111.96 50.15 111.7 50.03 111.37 50.03C111.12 50.03 110.93 50.08 110.77 50.17C110.62 50.26 110.49 50.41 110.4 50.61C110.31 50.81 110.27 51.03 110.27 51.31L110.27 57.14C110.27 57.42 110.31 57.66 110.4 57.86Z" />
						<path id="Layer" class="shp0" d="M91.76 50.45L91.76 61.3L88.42 61.3L88.42 50.45L86.15 50.45L86.15 47.26L94.03 47.26L94.03 50.45L91.76 50.45Z" />
						<path id="Layer" class="shp0" d="M80.85 47.26L84.06 47.26L84.06 61.3L80.85 61.3L80.85 56.01L78.91 56.01L78.91 61.3L75.7 61.3L75.7 47.26L78.91 47.26L78.91 52.79L80.85 52.79L80.85 47.26Z" />
						<path id="Layer" class="shp0" d="M70.72 61.3L70.72 53.14L67.78 61.3L65.22 61.3L65.22 47.26L68.11 47.26L68.11 55.42L71.08 47.26L73.61 47.26L73.61 61.3L70.72 61.3Z" />
					</g>
					<g id="Layer">
						<path id="Layer" fill-rule="evenodd" class="shp0" d="M173.11 42.05C172.23 42.05 171.48 41.9 170.85 41.59C170.21 41.28 169.75 40.84 169.42 40.27C169.09 39.69 168.91 39.01 168.91 38.19L168.91 31.29C168.91 30.5 169.09 29.81 169.42 29.26C169.75 28.69 170.23 28.27 170.85 27.98C171.46 27.7 172.23 27.54 173.11 27.54C173.99 27.54 174.74 27.7 175.38 27.98C176.02 28.27 176.5 28.71 176.81 29.26C177.14 29.84 177.29 30.5 177.29 31.29L177.29 38.24C177.29 39.03 177.12 39.71 176.81 40.29C176.48 40.86 176 41.28 175.38 41.59C174.74 41.9 173.99 42.03 173.11 42.03L173.11 42.05ZM173.11 39.03C173.4 39.03 173.62 38.94 173.77 38.77C173.93 38.59 173.99 38.33 173.99 37.97L173.99 31.58C173.99 31.25 173.93 31 173.77 30.83C173.62 30.65 173.4 30.56 173.11 30.56C172.85 30.56 172.63 30.65 172.45 30.83C172.3 31 172.21 31.27 172.21 31.58L172.21 37.97C172.21 38.33 172.3 38.57 172.45 38.77C172.61 38.94 172.83 39.03 173.11 39.03Z" />
						<path id="Layer" class="shp0" d="M161.71 27.78L163.34 27.78L166.84 27.78L166.84 31L163.34 31L163.34 41.83L160 41.83L160 27.78L161.71 27.78Z" />
						<path id="Layer" fill-rule="evenodd" class="shp0" d="M153.7 42.05C152.82 42.05 152.08 41.9 151.44 41.59C150.8 41.28 150.34 40.84 150.01 40.27C149.68 39.69 149.5 39.01 149.5 38.19L149.5 31.29C149.5 30.5 149.68 29.81 150.01 29.26C150.34 28.69 150.82 28.27 151.44 27.98C152.05 27.7 152.82 27.54 153.7 27.54C154.58 27.54 155.33 27.7 155.97 27.98C156.61 28.27 157.09 28.71 157.4 29.26C157.73 29.84 157.89 30.5 157.89 31.29L157.89 38.24C157.89 39.03 157.71 39.71 157.4 40.29C157.07 40.86 156.59 41.28 155.97 41.59C155.33 41.9 154.58 42.03 153.7 42.03L153.7 42.05ZM153.7 39.03C153.99 39.03 154.21 38.94 154.36 38.77C154.52 38.59 154.58 38.33 154.58 37.97L154.58 31.58C154.58 31.25 154.52 31 154.36 30.83C154.21 30.65 153.99 30.56 153.7 30.56C153.44 30.56 153.22 30.65 153.04 30.83C152.89 31 152.8 31.27 152.8 31.58L152.8 37.97C152.8 38.33 152.89 38.57 153.04 38.77C153.2 38.94 153.42 39.03 153.7 39.03Z" />
						<path id="Layer" class="shp0" d="M144.22 27.78L147.43 27.78L147.43 41.83L144.22 41.83L144.22 36.54L142.28 36.54L142.28 41.83L139.07 41.83L139.07 27.78L142.28 27.78L142.28 33.32L144.22 33.32L144.22 27.78Z" />
						<path id="Layer" class="shp0" d="M132.56 42.05C131.63 42.05 130.84 41.9 130.18 41.59C129.52 41.28 129.01 40.84 128.66 40.27C128.31 39.69 128.16 38.99 128.16 38.17L128.16 31.62C128.16 30.76 128.33 30.03 128.66 29.42C129.01 28.8 129.52 28.34 130.18 28.03C130.84 27.7 131.63 27.54 132.56 27.54C133.48 27.54 134.27 27.7 134.96 28.03C135.62 28.36 136.12 28.82 136.47 29.44C136.83 30.06 137 30.78 137 31.67L137 32.88L133.7 32.88L133.7 31.95C133.7 31.51 133.61 31.16 133.42 30.92C133.22 30.67 132.95 30.54 132.6 30.54C132.25 30.54 131.99 30.65 131.81 30.89C131.61 31.14 131.52 31.47 131.52 31.89L131.52 37.88C131.52 38.26 131.61 38.52 131.81 38.72C132.01 38.92 132.27 39.03 132.6 39.03C132.95 39.03 133.22 38.92 133.39 38.72C133.57 38.5 133.68 38.22 133.68 37.82L133.68 36.96L137 37L137 38.1C137 38.92 136.83 39.63 136.47 40.22C136.12 40.82 135.62 41.26 134.96 41.57C134.3 41.88 133.48 42.03 132.56 42.03L132.56 42.05Z" />
						<path id="Layer" fill-rule="evenodd" class="shp0" d="M120.48 42.05C119.44 42.05 118.63 41.7 118.08 41.02C117.53 40.33 117.24 39.34 117.24 38.02C117.24 36.52 117.64 35.37 118.43 34.58C119.22 33.78 120.37 33.39 121.89 33.39L122.88 33.39L122.88 31.75C122.88 31.38 122.77 31.09 122.57 30.89C122.37 30.7 122.08 30.59 121.71 30.59C121.4 30.59 121.14 30.7 120.96 30.89C120.78 31.09 120.7 31.38 120.7 31.75L117.51 31.75C117.51 30.41 117.88 29.37 118.63 28.64C119.38 27.9 120.41 27.54 121.75 27.54C122.66 27.54 123.43 27.7 124.06 28.03C124.7 28.36 125.19 28.84 125.52 29.46C125.85 30.1 126.02 30.85 126.02 31.73L126.02 41.81L122.85 41.81L122.85 40.38C122.81 40.46 122.79 40.53 122.74 40.6C122.52 41.06 122.24 41.41 121.84 41.66C121.44 41.9 120.98 42.01 120.41 42.01L120.48 42.05ZM122.9 36.08L122.06 36.08C121.51 36.08 121.11 36.23 120.83 36.58C120.54 36.91 120.41 37.4 120.41 38.04C120.41 38.44 120.5 38.74 120.67 38.96C120.85 39.16 121.09 39.27 121.42 39.27C121.89 39.27 122.24 39.14 122.5 38.9C122.74 38.63 122.88 38.28 122.9 37.8L122.9 36.08Z" />
						<path id="Layer" class="shp0" d="M108.64 27.78L110.31 27.78L112.25 27.78L114.32 27.78L115.46 27.78L115.46 41.83L112.25 41.83L112.25 31L110.31 31L110.31 41.83L107.1 41.83L107.1 27.78L108.64 27.78Z" />
						<path id="Layer" fill-rule="evenodd" class="shp0" d="M100.8 42.05C99.92 42.05 99.18 41.9 98.54 41.59C97.9 41.28 97.44 40.84 97.11 40.27C96.78 39.69 96.6 39.01 96.6 38.19L96.6 31.29C96.6 30.5 96.78 29.81 97.11 29.26C97.44 28.69 97.92 28.27 98.54 27.98C99.15 27.7 99.92 27.54 100.8 27.54C101.68 27.54 102.43 27.7 103.07 27.98C103.71 28.27 104.19 28.71 104.5 29.26C104.83 29.84 104.99 30.5 104.99 31.29L104.99 38.24C104.99 39.03 104.81 39.71 104.5 40.29C104.17 40.86 103.69 41.28 103.07 41.59C102.43 41.9 101.68 42.03 100.8 42.03L100.8 42.05ZM100.8 39.03C101.09 39.03 101.31 38.94 101.46 38.77C101.62 38.59 101.68 38.33 101.68 37.97L101.68 31.58C101.68 31.25 101.62 31 101.46 30.83C101.31 30.65 101.09 30.56 100.8 30.56C100.54 30.56 100.32 30.65 100.14 30.83C99.99 31 99.9 31.27 99.9 31.58L99.9 37.97C99.9 38.33 99.99 38.57 100.14 38.77C100.3 38.94 100.52 39.03 100.8 39.03Z" />
						<path id="Layer" class="shp0" d="M90.53 42.05C89.67 42.05 88.94 41.92 88.35 41.66C87.76 41.39 87.29 41.02 86.99 40.55C86.68 40.07 86.5 39.47 86.5 38.79L86.5 37.47L89.56 37.47L89.56 38.24C89.56 38.46 89.65 38.61 89.8 38.74C89.98 38.88 90.2 38.92 90.51 38.92C90.79 38.92 91.01 38.83 91.19 38.68C91.34 38.52 91.43 38.3 91.43 38.02L91.43 36.8C91.43 36.45 91.32 36.19 91.1 36.01C90.88 35.81 90.57 35.72 90.18 35.72L88.66 35.72L88.66 33.1L90.18 33.1C90.46 33.1 90.7 33.03 90.86 32.9C91.01 32.77 91.1 32.57 91.1 32.31L91.1 31.38C91.1 31.16 91.03 31 90.9 30.87C90.77 30.74 90.57 30.7 90.33 30.7C90.09 30.7 89.89 30.76 89.76 30.89C89.63 31.03 89.56 31.2 89.56 31.42L89.56 31.91L86.5 31.91L86.5 30.87C86.5 29.84 86.85 29.02 87.51 28.45C88.17 27.87 89.12 27.59 90.35 27.59C91.56 27.59 92.51 27.87 93.19 28.45C93.85 29.02 94.2 29.84 94.2 30.87L94.2 32.66C94.2 33.03 94.09 33.39 93.87 33.67C93.65 33.96 93.32 34.22 92.88 34.42C93.43 34.6 93.85 34.86 94.11 35.19C94.38 35.52 94.51 35.94 94.51 36.43L94.51 38.52C94.51 39.65 94.16 40.53 93.48 41.15C92.77 41.77 91.8 42.1 90.53 42.1L90.53 42.05Z" />
						<path id="Layer" fill-rule="evenodd" class="shp0" d="M80.12 42.05C79.2 42.05 78.4 41.88 77.72 41.54C77.06 41.21 76.56 40.71 76.2 40.07C75.85 39.43 75.67 38.63 75.67 37.73L75.67 32.13C75.67 31.16 75.85 30.34 76.18 29.66C76.51 28.98 77.02 28.45 77.66 28.09C78.29 27.74 79.09 27.56 79.99 27.56C80.91 27.56 81.7 27.74 82.36 28.09C83.02 28.45 83.51 28.95 83.86 29.62C84.21 30.28 84.39 31.09 84.39 32.04L84.39 36.01L78.93 36.01L78.93 37.86C78.93 38.26 79.04 38.55 79.24 38.74C79.44 38.94 79.72 39.05 80.12 39.05C80.47 39.05 80.74 38.96 80.93 38.79C81.13 38.61 81.22 38.37 81.22 38.06L81.22 37.58L84.45 37.6L84.45 37.99C84.45 39.27 84.08 40.29 83.31 40.99C82.56 41.7 81.48 42.05 80.12 42.05ZM79.79 33.54L81.13 33.54L81.13 31.86C81.13 31.45 81.02 31.11 80.82 30.89C80.63 30.65 80.34 30.54 79.99 30.54C79.64 30.54 79.37 30.67 79.2 30.92C79.02 31.16 78.91 31.51 78.91 31.97L78.91 33.56L79.77 33.56L79.79 33.54Z" />
						<path id="Layer" fill-rule="evenodd" class="shp0" d="M65.22 28.8C65.22 27.9 65.35 27.12 65.64 26.46C66.83 23.62 69.05 24.26 70.5 23.09C70.79 22.85 70.92 22.67 70.92 22.29C70.92 22.16 70.92 22.05 70.92 21.96L74.18 21.96L74.18 22.29C74.02 23.9 72.75 25.32 71.27 25.76C70.77 25.91 69.78 26.31 69.47 26.51C69.16 26.7 68.92 26.95 68.79 27.23C68.63 27.52 68.57 27.9 68.57 28.31L68.57 28.98C68.68 28.84 68.77 28.73 68.88 28.62C69.25 28.25 69.71 28.05 70.22 28.05C70.92 28.05 71.54 28.18 72.04 28.47C72.55 28.76 72.92 29.15 73.19 29.68C73.45 30.21 73.58 30.85 73.58 31.62L73.58 38.41C73.58 39.16 73.43 39.82 73.1 40.35C72.77 40.88 72.29 41.3 71.67 41.59C71.05 41.88 70.31 42.01 69.43 42.01C68.55 42.01 67.8 41.88 67.16 41.59C66.52 41.3 66.06 40.88 65.73 40.33C65.4 39.78 65.24 39.14 65.24 38.37L65.24 28.78L65.22 28.8ZM68.57 38.35C68.57 38.7 68.63 38.99 68.79 39.19C68.94 39.38 69.14 39.49 69.4 39.49C69.67 39.49 69.87 39.41 70.02 39.21C70.17 39.01 70.24 38.72 70.24 38.37L70.24 31.8C70.24 31.45 70.17 31.18 70.02 30.98C69.87 30.78 69.67 30.7 69.4 30.7C69.14 30.7 68.94 30.81 68.79 30.98C68.63 31.18 68.57 31.45 68.57 31.78L68.57 38.35Z" />
					</g>
					<path id="Layer" fill-rule="evenodd" class="shp0" d="M98.6 22.69C97.57 22.69 96.76 22.14 96.21 21.46C95.66 20.77 95.37 19.78 95.37 18.46C95.37 16.96 95.77 15.81 96.56 15.02C97.35 14.22 98.49 13.83 100.01 13.83L101 13.83L101 12.19C101 11.82 100.89 11.53 100.69 11.33C100.5 11.14 100.21 11.03 99.84 11.03C99.53 11.03 99.26 11.14 99.09 11.33C98.91 11.53 98.82 11.82 98.82 12.19L95.63 12.19C95.63 10.85 96.01 9.81 96.73 9.09C97.48 8.34 98.52 7.98 99.86 7.98C100.76 7.98 101.53 8.16 102.17 8.47C102.81 8.8 103.29 9.28 103.62 9.9C103.95 10.54 104.13 11.29 104.13 12.17L104.13 22.25L100.96 22.25L100.96 20.82C100.91 20.9 100.89 20.97 100.85 21.04C100.63 21.5 100.34 21.85 99.95 22.1C99.55 22.34 99.09 22.65 98.52 22.65L98.6 22.69ZM65.22 19.3C65.62 19.3 65.93 19.16 66.12 18.92C66.32 18.68 66.43 18.3 66.43 17.82L66.43 8.25L74.2 8.25L74.2 22.29L70.94 22.29L70.99 11.47L69.38 11.47L69.38 18.06C69.38 19.03 69.25 19.85 68.96 20.49C68.68 21.13 68.28 21.61 67.73 21.94C67.18 22.27 66.48 22.43 65.66 22.43L65.24 22.43L65.24 19.3L65.22 19.3ZM81.77 22.29L81.77 14.13L78.82 22.29L76.27 22.29L76.27 8.25L79.15 8.25L79.15 16.41L82.12 8.25L84.65 8.25L84.65 22.29L81.77 22.29ZM86.74 8.25L93.56 8.25L93.56 11.47L90.09 11.47L90.09 22.29L86.74 22.29L86.74 8.25ZM101 16.52L100.17 16.52C99.64 16.52 99.22 16.67 98.93 17.02C98.65 17.35 98.52 17.84 98.52 18.48C98.52 18.88 98.6 19.18 98.78 19.41C98.96 19.6 99.2 19.71 99.53 19.71C99.99 19.71 100.34 19.58 100.61 19.34C100.85 19.07 100.98 18.72 101 18.24L101 16.52Z" />
				</g>
				<g id="Layer">
					<path id="Layer" fill-rule="evenodd" class="shp1" d="M39.54 49.42C39.74 50.17 39.83 50.96 39.83 51.78C39.83 57.05 35.56 61.3 30.32 61.3C25.06 61.3 20.82 57.03 20.82 51.78C20.82 46.66 24.84 42.49 29.88 42.25C31.67 46.04 35.25 48.82 39.54 49.42ZM26.19 51.78C26.19 54.07 28.03 55.92 30.32 55.92C32.61 55.92 34.46 54.07 34.46 51.78C34.46 49.48 32.61 47.63 30.32 47.63C28.03 47.63 26.19 49.48 26.19 51.78Z" />
					<path id="Layer" fill-rule="evenodd" class="shp1" d="M41.35 25.51C47.6 25.51 52.66 30.59 52.66 36.85C52.66 43.11 47.6 48.18 41.35 48.18C36.37 48.18 32.13 44.96 30.63 40.46C31.31 39.91 31.95 39.32 32.55 38.7C33.4 42.8 37.01 45.87 41.37 45.87C46.34 45.87 50.37 41.83 50.37 36.85C50.37 31.86 46.34 27.83 41.37 27.83C39.96 27.83 38.62 28.16 37.41 28.73C37.54 27.9 37.61 27.01 37.63 26.13C38.79 25.71 40.05 25.49 41.37 25.49L41.35 25.51Z" />
					<path id="Layer" fill-rule="evenodd" class="shp2" d="M18.84 8.25C23.02 8.25 26.85 9.7 29.86 12.15C29.38 13.23 29.11 14.4 29.11 15.66C29.11 19.96 32.22 23.51 36.31 24.19C36.35 24.72 36.37 25.27 36.37 25.82C36.37 35.52 28.52 43.42 18.81 43.42C9.11 43.42 1.25 35.55 1.25 25.82C1.25 16.1 9.11 8.23 18.81 8.23L18.84 8.25ZM9.88 25.84C9.88 30.81 13.89 34.82 18.84 34.82C23.79 34.82 27.79 30.81 27.79 25.84C27.79 20.88 23.79 16.87 18.84 16.87C13.89 16.87 9.88 20.88 9.88 25.84Z" />
					<path id="Layer" fill-rule="evenodd" class="shp1" d="M37.76 8.23C41.85 8.23 45.15 11.55 45.15 15.63C45.15 19.74 41.83 23.04 37.76 23.04C33.67 23.04 30.37 19.71 30.37 15.63C30.37 11.53 33.69 8.23 37.76 8.23ZM34.55 15.63C34.55 17.42 35.98 18.85 37.76 18.85C39.54 18.85 40.97 17.42 40.97 15.63C40.97 13.85 39.54 12.41 37.76 12.41C35.98 12.41 34.55 13.85 34.55 15.63Z" />
					<path id="Layer" class="shp2" d="M30.48 8.58C28.42 8.58 26.76 6.91 26.76 4.85C26.76 2.79 28.42 1.12 30.48 1.12C32.53 1.12 34.2 2.79 34.2 4.85C34.2 6.91 32.53 8.58 30.48 8.58Z" />
				</g>
			</g>
		</g>
	</g>
</svg>